# xmcd
#
# Track frame offsets: 
#        150
#        7928
#        19855
#        31207
#        51993
#        65272
#        74072
#        88557
#        98408
#        109826
#        128079
#        150583
#        160360
#        178976
#
# Disc length: 2520 seconds
#
# Revision: 0
# Processed by: cddbd v1.5.2PL0 Copyright (c) Steve Scherf et al.
# Submitted via: ExactAudioCopy v0.95a4
#
DISCID=b109d60e
DTITLE=The McAllister Family - Family Faith Friends - A Living Legacy
DYEAR=1900
DGENRE=Gospel
TTITLE0=Scotland
TTITLE1=On the Sunny Side of Life
TTITLE2=Angelina Baker
TTITLE3=Ashokan Farewell
TTITLE4=Shady Gove
TTITLE5=Smith's Reel
TTITLE6=The Angels Rejoiced in Heaven Last Night
TTITLE7=Tom and Jerry
TTITLE8=Bring Your Vessels, Not a Few
TTITLE9=The Old Rugged Cross
TTITLE10=Life's Railway to Heaven
TTITLE11=Weeping Willow
TTITLE12=Home Sweet Home
TTITLE13=Amazing Grace
EXTD=
EXTT0=
EXTT1=
EXTT2=
EXTT3=
EXTT4=
EXTT5=
EXTT6=
EXTT7=
EXTT8=
EXTT9=
EXTT10=
EXTT11=
EXTT12=
EXTT13=
PLAYORDER=
